<svg xmlns="http://www.w3.org/2000/svg" xmlns:xlink="http://www.w3.org/1999/xlink" width="2000" zoomAndPan="magnify" viewBox="0 0 1500 1499.999933" height="2000" preserveAspectRatio="xMidYMid meet" version="1.0"><defs><g/><clipPath id="dda7ab62cc"><path d="M 750 0 C 335.785156 0 0 335.785156 0 750 C 0 1164.214844 335.785156 1500 750 1500 C 1164.214844 1500 1500 1164.214844 1500 750 C 1500 335.785156 1164.214844 0 750 0 Z M 750 0 " clip-rule="nonzero"/></clipPath><clipPath id="57c6b7cb04"><path d="M 483 708.355469 L 1018.8125 708.355469 L 1018.8125 1432.855469 L 483 1432.855469 Z M 483 708.355469 " clip-rule="nonzero"/></clipPath></defs><g clip-path="url(#dda7ab62cc)"><rect x="-150" width="1800" fill="#ffffff" y="-149.999993" height="1799.99992" fill-opacity="1"/></g><path fill="#ffffff" d="M 930.640625 1016.375 L 923.390625 1016.375 L 923.390625 1076.03125 L 923.390625 1033.007812 C 923.164062 1032.90625 922.941406 1032.800781 922.714844 1032.703125 C 918.003906 998.121094 888.382812 971.46875 852.523438 971.46875 L 839.59375 971.46875 C 839.59375 971.46875 839.59375 1061.597656 839.59375 1064.207031 C 839.59375 1067.75 839.59375 984.757812 839.59375 991.886719 C 839.59375 955.808594 810.355469 926.5625 774.292969 926.5625 L 755.796875 926.5625 L 755.796875 1057.722656 L 755.796875 769.894531 C 755.796875 742.117188 733.289062 719.597656 705.523438 719.597656 C 677.757812 719.597656 655.246094 742.117188 655.246094 769.894531 L 655.246094 1135.164062 C 545.9375 1045.082031 537.746094 1064.113281 516.035156 1079.292969 C 493.277344 1095.207031 487.722656 1126.566406 503.632812 1149.332031 L 644.671875 1351.179688 C 662.242188 1376.433594 684.785156 1421.613281 795.394531 1421.613281 L 867.039062 1421.613281 C 944.433594 1421.613281 1007.183594 1358.421875 1007.183594 1280.476562 L 1007.183594 1092.945312 C 1007.183594 1050.65625 972.914062 1016.375 930.640625 1016.375 " fill-opacity="1" fill-rule="nonzero"/><g clip-path="url(#57c6b7cb04)"><path fill="#1d1d1b" d="M 543.269531 1077.671875 C 537.109375 1077.671875 533.15625 1080.613281 527.144531 1085.089844 C 525.628906 1086.21875 524.082031 1087.363281 522.464844 1088.496094 C 513.914062 1094.476562 508.203125 1103.425781 506.386719 1113.703125 C 504.5625 1123.976562 506.855469 1134.347656 512.832031 1142.902344 L 653.867188 1344.746094 C 655.082031 1346.492188 656.308594 1348.308594 657.578125 1350.195312 C 674.6875 1375.597656 698.121094 1410.382812 795.394531 1410.382812 L 867.035156 1410.382812 C 938.125 1410.382812 995.960938 1352.109375 995.960938 1280.476562 L 995.960938 1092.945312 C 995.960938 1058.25 968.785156 1029.78125 934.613281 1027.722656 L 934.613281 1076.027344 C 934.613281 1082.230469 929.585938 1087.257812 923.390625 1087.257812 C 917.191406 1087.257812 912.167969 1082.230469 912.167969 1076.027344 L 912.167969 1036.496094 C 911.894531 1035.765625 911.699219 1035 911.597656 1034.21875 C 907.59375 1004.847656 882.199219 982.695312 852.523438 982.695312 L 850.816406 982.695312 L 850.816406 1064.316406 C 850.816406 1070.515625 845.789062 1075.542969 839.59375 1075.542969 C 833.394531 1075.542969 828.371094 1070.515625 828.371094 1064.316406 L 828.371094 991.886719 C 828.371094 962.058594 804.109375 937.789062 774.292969 937.789062 L 767.019531 937.789062 L 767.019531 1057.722656 C 767.019531 1063.921875 761.996094 1068.949219 755.796875 1068.949219 C 749.601562 1068.949219 744.574219 1063.921875 744.574219 1057.722656 L 744.574219 769.894531 C 744.574219 748.347656 727.054688 730.824219 705.523438 730.824219 C 683.984375 730.824219 666.46875 748.347656 666.46875 769.894531 L 666.46875 1135.164062 C 666.46875 1139.507812 663.960938 1143.464844 660.035156 1145.316406 C 656.101562 1147.167969 651.460938 1146.589844 648.109375 1143.828125 C 603.046875 1106.691406 572.058594 1085.683594 553.367188 1079.597656 C 549.289062 1078.273438 546.054688 1077.671875 543.269531 1077.671875 Z M 867.035156 1432.839844 L 795.394531 1432.839844 C 686.179688 1432.839844 656.621094 1388.957031 638.960938 1362.742188 C 637.757812 1360.953125 636.597656 1359.230469 635.457031 1357.59375 L 494.433594 1155.765625 C 485.019531 1142.292969 481.417969 1125.964844 484.28125 1109.785156 C 487.148438 1093.601562 496.140625 1079.507812 509.605469 1070.09375 C 511.035156 1069.09375 512.402344 1068.074219 513.746094 1067.074219 C 539.875 1047.628906 561.230469 1045.765625 644.023438 1111.617188 L 644.023438 769.894531 C 644.023438 735.96875 671.613281 708.371094 705.523438 708.371094 C 739.429688 708.371094 767.019531 735.96875 767.019531 769.894531 L 767.019531 915.335938 L 774.292969 915.335938 C 805.210938 915.335938 831.910156 933.777344 843.96875 960.242188 L 852.523438 960.242188 C 883.988281 960.242188 911.960938 978.347656 925.667969 1005.148438 L 930.640625 1005.148438 C 979.035156 1005.148438 1018.40625 1044.535156 1018.40625 1092.945312 L 1018.40625 1280.476562 C 1018.40625 1364.492188 950.5 1432.839844 867.035156 1432.839844 " fill-opacity="1" fill-rule="nonzero"/></g><g fill="#000000" fill-opacity="1"><g transform="translate(231.992006, 545.14851)"><g><path d="M 205 29 C 198 29 192.082031 31.5 187.25 36.5 C 182.414062 41.5 180 47.5 180 54.5 C 180 61.5 182.414062 67.332031 187.25 72 C 192.082031 76.664062 198 79 205 79 C 212.332031 79 218.332031 76.75 223 72.25 C 227.664062 67.75 230 61.832031 230 54.5 C 230 47.164062 227.664062 41.082031 223 36.25 C 218.332031 31.414062 212.332031 29 205 29 Z M 172.75 22.25 C 181.25 13.414062 192 9 205 9 C 218 9 228.75 13.25 237.25 21.75 C 245.75 30.25 250 41.164062 250 54.5 C 250 67.5 245.75 78.164062 237.25 86.5 C 228.75 94.832031 218 99 205 99 C 192.664062 99 182.082031 94.832031 173.25 86.5 C 164.414062 78.164062 160 67.5 160 54.5 C 160 41.832031 164.25 31.082031 172.75 22.25 Z M 95 29 C 88 29 82.082031 31.5 77.25 36.5 C 72.414062 41.5 70 47.5 70 54.5 C 70 61.5 72.414062 67.332031 77.25 72 C 82.082031 76.664062 88 79 95 79 C 102.332031 79 108.332031 76.75 113 72.25 C 117.664062 67.75 120 61.832031 120 54.5 C 120 47.164062 117.664062 41.082031 113 36.25 C 108.332031 31.414062 102.332031 29 95 29 Z M 62.75 22.25 C 71.25 13.414062 82 9 95 9 C 108 9 118.75 13.25 127.25 21.75 C 135.75 30.25 140 41.164062 140 54.5 C 140 67.5 135.75 78.164062 127.25 86.5 C 118.75 94.832031 108 99 95 99 C 82.664062 99 72.082031 94.832031 63.25 86.5 C 54.414062 78.164062 50 67.5 50 54.5 C 50 41.832031 54.25 31.082031 62.75 22.25 Z M 205 -81 C 198 -81 192.082031 -78.5 187.25 -73.5 C 182.414062 -68.5 180 -62.5 180 -55.5 C 180 -48.5 182.414062 -42.664062 187.25 -38 C 192.082031 -33.332031 198 -31 205 -31 C 212.332031 -31 218.332031 -33.25 223 -37.75 C 227.664062 -42.25 230 -48.164062 230 -55.5 C 230 -62.832031 227.664062 -68.914062 223 -73.75 C 218.332031 -78.582031 212.332031 -81 205 -81 Z M 172.75 -87.75 C 181.25 -96.582031 192 -101 205 -101 C 218 -101 228.75 -96.75 237.25 -88.25 C 245.75 -79.75 250 -68.832031 250 -55.5 C 250 -42.5 245.75 -31.832031 237.25 -23.5 C 228.75 -15.164062 218 -11 205 -11 C 192.664062 -11 182.082031 -15.164062 173.25 -23.5 C 164.414062 -31.832031 160 -42.5 160 -55.5 C 160 -68.164062 164.25 -78.914062 172.75 -87.75 Z M 205 -191 C 198 -191 192.082031 -188.5 187.25 -183.5 C 182.414062 -178.5 180 -172.5 180 -165.5 C 180 -158.5 182.414062 -152.664062 187.25 -148 C 192.082031 -143.332031 198 -141 205 -141 C 212.332031 -141 218.332031 -143.25 223 -147.75 C 227.664062 -152.25 230 -158.164062 230 -165.5 C 230 -172.832031 227.664062 -178.914062 223 -183.75 C 218.332031 -188.582031 212.332031 -191 205 -191 Z M 172.75 -197.75 C 181.25 -206.582031 192 -211 205 -211 C 218 -211 228.75 -206.75 237.25 -198.25 C 245.75 -189.75 250 -178.832031 250 -165.5 C 250 -152.5 245.75 -141.832031 237.25 -133.5 C 228.75 -125.164062 218 -121 205 -121 C 192.664062 -121 182.082031 -125.164062 173.25 -133.5 C 164.414062 -141.832031 160 -152.5 160 -165.5 C 160 -178.164062 164.25 -188.914062 172.75 -197.75 Z M 172.75 -307.75 C 181.25 -316.582031 192 -321 205 -321 C 218 -321 228.75 -316.75 237.25 -308.25 C 245.75 -299.75 250 -288.832031 250 -275.5 C 250 -262.5 245.75 -251.832031 237.25 -243.5 C 228.75 -235.164062 218 -231 205 -231 C 192.664062 -231 182.082031 -235.164062 173.25 -243.5 C 164.414062 -251.832031 160 -262.5 160 -275.5 C 160 -288.164062 164.25 -298.914062 172.75 -307.75 Z M 62.75 -87.75 C 71.25 -96.582031 82 -101 95 -101 C 108 -101 118.75 -96.75 127.25 -88.25 C 135.75 -79.75 140 -68.832031 140 -55.5 C 140 -42.5 135.75 -31.832031 127.25 -23.5 C 118.75 -15.164062 108 -11 95 -11 C 82.664062 -11 72.082031 -15.164062 63.25 -23.5 C 54.414062 -31.832031 50 -42.5 50 -55.5 C 50 -68.164062 54.25 -78.914062 62.75 -87.75 Z M 62.75 -197.75 C 71.25 -206.582031 82 -211 95 -211 C 108 -211 118.75 -206.75 127.25 -198.25 C 135.75 -189.75 140 -178.832031 140 -165.5 C 140 -152.5 135.75 -141.832031 127.25 -133.5 C 118.75 -125.164062 108 -121 95 -121 C 82.664062 -121 72.082031 -125.164062 63.25 -133.5 C 54.414062 -141.832031 50 -152.5 50 -165.5 C 50 -178.164062 54.25 -188.914062 62.75 -197.75 Z M 95 -301 C 88 -301 82.082031 -298.5 77.25 -293.5 C 72.414062 -288.5 70 -282.5 70 -275.5 C 70 -268.5 72.414062 -262.664062 77.25 -258 C 82.082031 -253.332031 88 -251 95 -251 C 102.332031 -251 108.332031 -253.25 113 -257.75 C 117.664062 -262.25 120 -268.164062 120 -275.5 C 120 -282.832031 117.664062 -288.914062 113 -293.75 C 108.332031 -298.582031 102.332031 -301 95 -301 Z M 62.75 -307.75 C 71.25 -316.582031 82 -321 95 -321 C 108 -321 118.75 -316.75 127.25 -308.25 C 135.75 -299.75 140 -288.832031 140 -275.5 C 140 -262.5 135.75 -251.832031 127.25 -243.5 C 118.75 -235.164062 108 -231 95 -231 C 82.664062 -231 72.082031 -235.164062 63.25 -243.5 C 54.414062 -251.832031 50 -262.5 50 -275.5 C 50 -288.164062 54.25 -298.914062 62.75 -307.75 Z M 62.75 -307.75 "/></g></g></g><g fill="#000000" fill-opacity="1"><g transform="translate(599.988467, 545.14851)"><g><path d="M 205 29 C 198 29 192.082031 31.5 187.25 36.5 C 182.414062 41.5 180 47.5 180 54.5 C 180 61.5 182.414062 67.332031 187.25 72 C 192.082031 76.664062 198 79 205 79 C 212.332031 79 218.332031 76.75 223 72.25 C 227.664062 67.75 230 61.832031 230 54.5 C 230 47.164062 227.664062 41.082031 223 36.25 C 218.332031 31.414062 212.332031 29 205 29 Z M 172.75 22.25 C 181.25 13.414062 192 9 205 9 C 218 9 228.75 13.25 237.25 21.75 C 245.75 30.25 250 41.164062 250 54.5 C 250 67.5 245.75 78.164062 237.25 86.5 C 228.75 94.832031 218 99 205 99 C 192.664062 99 182.082031 94.832031 173.25 86.5 C 164.414062 78.164062 160 67.5 160 54.5 C 160 41.832031 164.25 31.082031 172.75 22.25 Z M 95 29 C 88 29 82.082031 31.5 77.25 36.5 C 72.414062 41.5 70 47.5 70 54.5 C 70 61.5 72.414062 67.332031 77.25 72 C 82.082031 76.664062 88 79 95 79 C 102.332031 79 108.332031 76.75 113 72.25 C 117.664062 67.75 120 61.832031 120 54.5 C 120 47.164062 117.664062 41.082031 113 36.25 C 108.332031 31.414062 102.332031 29 95 29 Z M 62.75 22.25 C 71.25 13.414062 82 9 95 9 C 108 9 118.75 13.25 127.25 21.75 C 135.75 30.25 140 41.164062 140 54.5 C 140 67.5 135.75 78.164062 127.25 86.5 C 118.75 94.832031 108 99 95 99 C 82.664062 99 72.082031 94.832031 63.25 86.5 C 54.414062 78.164062 50 67.5 50 54.5 C 50 41.832031 54.25 31.082031 62.75 22.25 Z M 205 -81 C 198 -81 192.082031 -78.5 187.25 -73.5 C 182.414062 -68.5 180 -62.5 180 -55.5 C 180 -48.5 182.414062 -42.664062 187.25 -38 C 192.082031 -33.332031 198 -31 205 -31 C 212.332031 -31 218.332031 -33.25 223 -37.75 C 227.664062 -42.25 230 -48.164062 230 -55.5 C 230 -62.832031 227.664062 -68.914062 223 -73.75 C 218.332031 -78.582031 212.332031 -81 205 -81 Z M 172.75 -87.75 C 181.25 -96.582031 192 -101 205 -101 C 218 -101 228.75 -96.75 237.25 -88.25 C 245.75 -79.75 250 -68.832031 250 -55.5 C 250 -42.5 245.75 -31.832031 237.25 -23.5 C 228.75 -15.164062 218 -11 205 -11 C 192.664062 -11 182.082031 -15.164062 173.25 -23.5 C 164.414062 -31.832031 160 -42.5 160 -55.5 C 160 -68.164062 164.25 -78.914062 172.75 -87.75 Z M 172.75 -197.75 C 181.25 -206.582031 192 -211 205 -211 C 218 -211 228.75 -206.75 237.25 -198.25 C 245.75 -189.75 250 -178.832031 250 -165.5 C 250 -152.5 245.75 -141.832031 237.25 -133.5 C 228.75 -125.164062 218 -121 205 -121 C 192.664062 -121 182.082031 -125.164062 173.25 -133.5 C 164.414062 -141.832031 160 -152.5 160 -165.5 C 160 -178.164062 164.25 -188.914062 172.75 -197.75 Z M 172.75 -307.75 C 181.25 -316.582031 192 -321 205 -321 C 218 -321 228.75 -316.75 237.25 -308.25 C 245.75 -299.75 250 -288.832031 250 -275.5 C 250 -262.5 245.75 -251.832031 237.25 -243.5 C 228.75 -235.164062 218 -231 205 -231 C 192.664062 -231 182.082031 -235.164062 173.25 -243.5 C 164.414062 -251.832031 160 -262.5 160 -275.5 C 160 -288.164062 164.25 -298.914062 172.75 -307.75 Z M 62.75 -87.75 C 71.25 -96.582031 82 -101 95 -101 C 108 -101 118.75 -96.75 127.25 -88.25 C 135.75 -79.75 140 -68.832031 140 -55.5 C 140 -42.5 135.75 -31.832031 127.25 -23.5 C 118.75 -15.164062 108 -11 95 -11 C 82.664062 -11 72.082031 -15.164062 63.25 -23.5 C 54.414062 -31.832031 50 -42.5 50 -55.5 C 50 -68.164062 54.25 -78.914062 62.75 -87.75 Z M 62.75 -197.75 C 71.25 -206.582031 82 -211 95 -211 C 108 -211 118.75 -206.75 127.25 -198.25 C 135.75 -189.75 140 -178.832031 140 -165.5 C 140 -152.5 135.75 -141.832031 127.25 -133.5 C 118.75 -125.164062 108 -121 95 -121 C 82.664062 -121 72.082031 -125.164062 63.25 -133.5 C 54.414062 -141.832031 50 -152.5 50 -165.5 C 50 -178.164062 54.25 -188.914062 62.75 -197.75 Z M 95 -301 C 88 -301 82.082031 -298.5 77.25 -293.5 C 72.414062 -288.5 70 -282.5 70 -275.5 C 70 -268.5 72.414062 -262.664062 77.25 -258 C 82.082031 -253.332031 88 -251 95 -251 C 102.332031 -251 108.332031 -253.25 113 -257.75 C 117.664062 -262.25 120 -268.164062 120 -275.5 C 120 -282.832031 117.664062 -288.914062 113 -293.75 C 108.332031 -298.582031 102.332031 -301 95 -301 Z M 62.75 -307.75 C 71.25 -316.582031 82 -321 95 -321 C 108 -321 118.75 -316.75 127.25 -308.25 C 135.75 -299.75 140 -288.832031 140 -275.5 C 140 -262.5 135.75 -251.832031 127.25 -243.5 C 118.75 -235.164062 108 -231 95 -231 C 82.664062 -231 72.082031 -235.164062 63.25 -243.5 C 54.414062 -251.832031 50 -262.5 50 -275.5 C 50 -288.164062 54.25 -298.914062 62.75 -307.75 Z M 62.75 -307.75 "/></g></g></g><g fill="#000000" fill-opacity="1"><g transform="translate(967.984928, 545.14851)"><g><path d="M 205 29 C 198 29 192.082031 31.5 187.25 36.5 C 182.414062 41.5 180 47.5 180 54.5 C 180 61.5 182.414062 67.332031 187.25 72 C 192.082031 76.664062 198 79 205 79 C 212.332031 79 218.332031 76.75 223 72.25 C 227.664062 67.75 230 61.832031 230 54.5 C 230 47.164062 227.664062 41.082031 223 36.25 C 218.332031 31.414062 212.332031 29 205 29 Z M 172.75 22.25 C 181.25 13.414062 192 9 205 9 C 218 9 228.75 13.25 237.25 21.75 C 245.75 30.25 250 41.164062 250 54.5 C 250 67.5 245.75 78.164062 237.25 86.5 C 228.75 94.832031 218 99 205 99 C 192.664062 99 182.082031 94.832031 173.25 86.5 C 164.414062 78.164062 160 67.5 160 54.5 C 160 41.832031 164.25 31.082031 172.75 22.25 Z M 95 29 C 88 29 82.082031 31.5 77.25 36.5 C 72.414062 41.5 70 47.5 70 54.5 C 70 61.5 72.414062 67.332031 77.25 72 C 82.082031 76.664062 88 79 95 79 C 102.332031 79 108.332031 76.75 113 72.25 C 117.664062 67.75 120 61.832031 120 54.5 C 120 47.164062 117.664062 41.082031 113 36.25 C 108.332031 31.414062 102.332031 29 95 29 Z M 62.75 22.25 C 71.25 13.414062 82 9 95 9 C 108 9 118.75 13.25 127.25 21.75 C 135.75 30.25 140 41.164062 140 54.5 C 140 67.5 135.75 78.164062 127.25 86.5 C 118.75 94.832031 108 99 95 99 C 82.664062 99 72.082031 94.832031 63.25 86.5 C 54.414062 78.164062 50 67.5 50 54.5 C 50 41.832031 54.25 31.082031 62.75 22.25 Z M 205 -81 C 198 -81 192.082031 -78.5 187.25 -73.5 C 182.414062 -68.5 180 -62.5 180 -55.5 C 180 -48.5 182.414062 -42.664062 187.25 -38 C 192.082031 -33.332031 198 -31 205 -31 C 212.332031 -31 218.332031 -33.25 223 -37.75 C 227.664062 -42.25 230 -48.164062 230 -55.5 C 230 -62.832031 227.664062 -68.914062 223 -73.75 C 218.332031 -78.582031 212.332031 -81 205 -81 Z M 172.75 -87.75 C 181.25 -96.582031 192 -101 205 -101 C 218 -101 228.75 -96.75 237.25 -88.25 C 245.75 -79.75 250 -68.832031 250 -55.5 C 250 -42.5 245.75 -31.832031 237.25 -23.5 C 228.75 -15.164062 218 -11 205 -11 C 192.664062 -11 182.082031 -15.164062 173.25 -23.5 C 164.414062 -31.832031 160 -42.5 160 -55.5 C 160 -68.164062 164.25 -78.914062 172.75 -87.75 Z M 205 -191 C 198 -191 192.082031 -188.5 187.25 -183.5 C 182.414062 -178.5 180 -172.5 180 -165.5 C 180 -158.5 182.414062 -152.664062 187.25 -148 C 192.082031 -143.332031 198 -141 205 -141 C 212.332031 -141 218.332031 -143.25 223 -147.75 C 227.664062 -152.25 230 -158.164062 230 -165.5 C 230 -172.832031 227.664062 -178.914062 223 -183.75 C 218.332031 -188.582031 212.332031 -191 205 -191 Z M 172.75 -197.75 C 181.25 -206.582031 192 -211 205 -211 C 218 -211 228.75 -206.75 237.25 -198.25 C 245.75 -189.75 250 -178.832031 250 -165.5 C 250 -152.5 245.75 -141.832031 237.25 -133.5 C 228.75 -125.164062 218 -121 205 -121 C 192.664062 -121 182.082031 -125.164062 173.25 -133.5 C 164.414062 -141.832031 160 -152.5 160 -165.5 C 160 -178.164062 164.25 -188.914062 172.75 -197.75 Z M 205 -301 C 198 -301 192.082031 -298.5 187.25 -293.5 C 182.414062 -288.5 180 -282.5 180 -275.5 C 180 -268.5 182.414062 -262.664062 187.25 -258 C 192.082031 -253.332031 198 -251 205 -251 C 212.332031 -251 218.332031 -253.25 223 -257.75 C 227.664062 -262.25 230 -268.164062 230 -275.5 C 230 -282.832031 227.664062 -288.914062 223 -293.75 C 218.332031 -298.582031 212.332031 -301 205 -301 Z M 172.75 -307.75 C 181.25 -316.582031 192 -321 205 -321 C 218 -321 228.75 -316.75 237.25 -308.25 C 245.75 -299.75 250 -288.832031 250 -275.5 C 250 -262.5 245.75 -251.832031 237.25 -243.5 C 228.75 -235.164062 218 -231 205 -231 C 192.664062 -231 182.082031 -235.164062 173.25 -243.5 C 164.414062 -251.832031 160 -262.5 160 -275.5 C 160 -288.164062 164.25 -298.914062 172.75 -307.75 Z M 62.75 -87.75 C 71.25 -96.582031 82 -101 95 -101 C 108 -101 118.75 -96.75 127.25 -88.25 C 135.75 -79.75 140 -68.832031 140 -55.5 C 140 -42.5 135.75 -31.832031 127.25 -23.5 C 118.75 -15.164062 108 -11 95 -11 C 82.664062 -11 72.082031 -15.164062 63.25 -23.5 C 54.414062 -31.832031 50 -42.5 50 -55.5 C 50 -68.164062 54.25 -78.914062 62.75 -87.75 Z M 62.75 -197.75 C 71.25 -206.582031 82 -211 95 -211 C 108 -211 118.75 -206.75 127.25 -198.25 C 135.75 -189.75 140 -178.832031 140 -165.5 C 140 -152.5 135.75 -141.832031 127.25 -133.5 C 118.75 -125.164062 108 -121 95 -121 C 82.664062 -121 72.082031 -125.164062 63.25 -133.5 C 54.414062 -141.832031 50 -152.5 50 -165.5 C 50 -178.164062 54.25 -188.914062 62.75 -197.75 Z M 62.75 -307.75 C 71.25 -316.582031 82 -321 95 -321 C 108 -321 118.75 -316.75 127.25 -308.25 C 135.75 -299.75 140 -288.832031 140 -275.5 C 140 -262.5 135.75 -251.832031 127.25 -243.5 C 118.75 -235.164062 108 -231 95 -231 C 82.664062 -231 72.082031 -235.164062 63.25 -243.5 C 54.414062 -251.832031 50 -262.5 50 -275.5 C 50 -288.164062 54.25 -298.914062 62.75 -307.75 Z M 62.75 -307.75 "/></g></g></g></svg>